<svg xmlns="http://www.w3.org/2000/svg" width="210" height="238" viewBox="0 0 210 238">
  <g fill="none" fill-rule="evenodd" transform="translate(1 1)">
    <path stroke="#142D3D" d="M156.979033 145.390138C164.345832 53.8881474 166.673193 5.68441526 163.961115.778941667 161.249037-4.12653192 148.280594 37.3866714 125.055785 125.318552M50.510785 86.9279977C54.0368708 68.2789397 54.9119686 57.8728227 53.1360784 55.7096464 51.3601881 53.5464702 45.3334238 62.3673495 35.0557853 82.1722845"/>
    <polygon fill="#142D3D" points="52.135 55.39 54.028 56.485 53.477 68.503 47.924 70"/>
    <polygon fill="#142D3D" points="14.46 108.542 15.45 109.608 14.548 122.164 10.321 123.151" transform="scale(1 -1) rotate(-70 -152.56 0)"/>
    <path stroke="#142D3D" d="M137.055785 168.397204C54.3891186 219.406984 13.0557853 241.715278 13.0557853 235.322086 13.0557853 228.928893 43.8698448 200.618244 105.497964 150.390138M36.0557853 104.666614C16.0557853 117.302796 6.05578526 122.322694 6.05578526 119.726308 6.05578526 117.129923 12.8442423 108.351199 26.4211564 93.390138"/>
    <path stroke="#142D3D" stroke-linecap="round" stroke-linejoin="round" d="M6.05578526 119.890138L31.7866258 101.00393M44.1253649 85.0492289L51.7224519 55.7580385"/>
    <path fill="#142D3D" stroke="#142D3D" d="M30.0557853,81.6598808 C11.1468692,68.9165954 1.17627772,63.2257307 0.144010717,64.5872867 C-0.888256285,65.9488427 7.13787584,74.2164598 24.2224071,89.390138"/>
    <path fill="#FFF" stroke="#142D3D" d="M75.3608127,98.1558177 C94.9008006,109.728678 216.979709,170.572717 206.408186,192.371659 C195.836662,214.170601 89.748469,140.978932 60.7163907,123.784235 C31.6843125,106.589538 19.8337643,85.9765436 22.3953297,82.2967906 C24.9568951,78.6170377 55.8208247,86.5829579 75.3608127,98.1558177 Z"/>
    <circle cx="156.556" cy="31.89" r="1.5" stroke="#142D3D"/>
    <circle cx="158.556" cy="25.89" r="1.5" stroke="#142D3D"/>
    <g fill="#142D3D" transform="rotate(31 -163.522 157.67)">
      <ellipse cx="2.38" cy="3.026" rx="2.38" ry="3.026"/>
      <ellipse cx="7.836" cy="3.026" rx="2.38" ry="3.026"/>
      <ellipse cx="13.292" cy="3.026" rx="2.38" ry="3.026"/>
      <ellipse cx="18.748" cy="3.026" rx="2.38" ry="3.026"/>
      <ellipse cx="24.204" cy="3.026" rx="2.38" ry="3.026"/>
      <ellipse cx="29.66" cy="3.026" rx="2.38" ry="3.026"/>
      <ellipse cx="35.116" cy="3.026" rx="2.38" ry="3.026"/>
      <ellipse cx="40.572" cy="3.026" rx="2.38" ry="3.026"/>
      <ellipse cx="46.028" cy="3.026" rx="2.38" ry="3.026"/>
      <ellipse cx="51.484" cy="3.026" rx="2.38" ry="3.026"/>
      <ellipse cx="56.94" cy="3.026" rx="2.38" ry="3.026"/>
      <ellipse cx="62.396" cy="3.026" rx="2.38" ry="3.026"/>
      <ellipse cx="67.852" cy="3.026" rx="2.38" ry="3.026"/>
      <ellipse cx="73.308" cy="3.026" rx="2.38" ry="3.026"/>
      <ellipse cx="78.764" cy="3.026" rx="2.38" ry="3.026"/>
      <ellipse cx="84.22" cy="3.026" rx="2.38" ry="3.026"/>
      <ellipse cx="89.676" cy="3.026" rx="2.38" ry="3.026"/>
      <ellipse cx="95.132" cy="3.026" rx="2.38" ry="3.026"/>
      <ellipse cx="100.587" cy="3.026" rx="2.38" ry="3.026"/>
      <ellipse cx="106.043" cy="3.026" rx="2.38" ry="3.026"/>
    </g>
    <path stroke="#142D3D" d="M21.5596162 223.390138C16.9551744 218.546367 14.7955476 215.901342 15.0807357 215.455064 15.3659238 215.008786 18.0242737 216.863174 23.0557853 221.018228M25.988945 219.390138C21.0974484 214.501285 18.7942456 211.852478 19.0793365 211.443716 19.3644275 211.034954 22.356577 212.96512 28.0557853 217.234215M29.7231333 215.390138C24.3341976 209.858923 21.7859404 206.876577 22.0783618 206.443102 22.3707832 206.009627 25.696591 208.236929 32.0557853 213.125008"/>
    <path fill="#142D3D" stroke="#142D3D" stroke-linecap="round" stroke-linejoin="round" d="M115.055785 157.342002C90.5935523 175.509423 77.1233069 185.273022 74.6450489 186.632799 72.1667908 187.992576 68.3991693 187.616691 63.3421844 185.505146L104.598025 151.390138M134.903665 130.390138C143.005079 100.112799 147.055785 83.211409 147.055785 79.6859692 147.055785 76.1605294 144.633965 73.3952523 139.790324 71.390138L125.055785 125.277839 134.903665 130.390138z"/>
    <path stroke="#142D3D" d="M156.055785 17.3558905C149.680993 13.6060363 146.353574 11.9799397 146.07353 12.4776008 145.793485 12.975262 148.787571 15.4490404 155.055785 19.8989361M154.45439 22.0039788C148.460613 18.5157375 145.332856 17.0018813 145.07112 17.4624103 144.809383 17.9229392 147.606407 20.4386865 153.462192 25.0096524M152.515649 26.9902239C146.483259 22.807049 143.33517 20.9647841 143.071383 21.4634294 142.807596 21.9620746 145.726552 24.8136275 151.828252 30.018088"/>
    <path fill="#142D3D" d="M207.107436,194.118955 C204.74609,198.03957 198.416705,198.43595 188.119281,195.308095 C170.618799,189.018091 162.663902,185.54791 164.254591,184.897552 C165.84528,184.247195 178.081173,181.744723 200.96227,177.390138 C207.420394,184.622067 209.468783,190.19834 207.107436,194.118955 Z"/>
    <path stroke="#142D3D" stroke-linecap="round" d="M161.555785,183.890138 L199.555785,175.890138"/>
    <path stroke="#142D3D" d="M62.0557853 186.761723C67.5288391 188.849571 71.4014682 189.693578 73.6736724 189.293742 75.9458767 188.893906 90.406581 178.592705 117.055785 158.390138M140.218792 69.390138C144.836009 71.0923053 147.720525 73.6687587 148.87234 77.1194982 150.024155 80.5702377 145.75197 98.9937843 136.055785 132.390138"/>
    <circle cx="148.556" cy="172.89" r="1.5" stroke="#142D3D"/>
    <circle cx="34.556" cy="217.89" r="1.5" stroke="#142D3D"/>
    <circle cx="30.556" cy="221.89" r="1.5" stroke="#142D3D"/>
    <circle cx="154.556" cy="175.89" r="1.5" stroke="#142D3D"/>
    <circle cx="160.556" cy="179.89" r="1.5" stroke="#142D3D"/>
  </g>
</svg>
