<svg xmlns="http://www.w3.org/2000/svg" width="224" height="211" viewBox="0 0 224 211">
  <g fill="none" fill-rule="evenodd" transform="translate(0 -6)">
    <path stroke="#142D3D" d="M214.811216,11.6679768 C211.836489,11.5858905 188.024344,10.9270633 173.817135,10.5880778 C160.975302,10.2816704 148.689573,10.0290586 137.098361,9.84295444 C90.5387229,9.09541055 60.5814961,9.56651367 59.5120832,11.4257386 C56.8781012,16.0050407 11.1018402,196.934899 11.1018402,202.169536 C11.1018402,202.818053 20.8617245,203.700366 36.1041555,204.117943 C50.5915666,204.514836 70.4762248,204.614167 92.5610163,204.437167 C135.011927,204.096941 175.841425,202.813629 178.321211,201.712558 C180.457907,200.763826 189.480467,159.479212 199.561241,105.69375 C204.037894,81.8087968 208.203462,58.2048542 211.044107,40.6067606 C212.508176,31.536698 213.587741,24.2654998 214.213283,19.224571 C214.536969,16.6161552 214.737503,14.617636 214.809511,13.2687385 C214.845547,12.5936985 214.848929,12.0870334 214.820699,11.7607119 C214.817804,11.7272427 214.814608,11.6962768 214.811216,11.6679768 Z" transform="rotate(5 112.97 107.01)"/>
    <path fill="#FFF" stroke="#142D3D" d="M199.811216,18.6679768 C196.836489,18.5858905 173.024344,17.9270633 158.817135,17.5880778 C145.975302,17.2816704 133.689573,17.0290586 122.098361,16.8429544 C75.5387229,16.0954105 45.5814961,16.5665137 44.5120832,18.4257386 C42.1393773,22.5507998 13.1358501,189.024312 13.1358501,195.52307 C13.1358501,196.22494 21.7854509,197.906945 35.5243225,199.607336 C48.5749793,201.22255 66.475508,202.98229 86.1234509,204.615637 C124.961348,207.844258 160.908686,209.783764 163.321211,208.712558 C165.457907,207.763826 174.480467,166.479212 184.561241,112.69375 C189.037894,88.8087968 193.203462,65.2048542 196.044107,47.6067606 C197.508176,38.536698 198.587741,31.2654998 199.213283,26.224571 C199.536969,23.6161552 199.737503,21.617636 199.809511,20.2687385 C199.845547,19.5936985 199.848929,19.0870334 199.820699,18.7607119 C199.817804,18.7272427 199.814608,18.6962768 199.811216,18.6679768 Z"/>
    <path fill="#FFF" stroke="#142D3D" d="M187.269753,25.4915366 C184.295026,25.4094503 160.482881,24.7506231 146.275672,24.4116376 C133.433838,24.1052302 121.14811,23.8526184 109.556897,23.6665142 C62.9972597,22.9189704 33.0400328,23.3900735 31.9706199,25.2492984 C29.5932981,29.3823847 0.5,194.755007 0.5,201.21471 C0.5,201.920254 9.15319081,203.66894 22.9069511,205.476314 C35.9719928,207.193184 53.8904736,209.091296 73.5385411,210.873562 C112.458459,214.403967 148.37233,216.605056 150.779748,215.536118 C152.916444,214.587386 161.939004,173.302771 172.019778,119.51731 C176.496431,95.6323566 180.661999,72.028414 183.502644,54.4303204 C184.966713,45.3602578 186.046278,38.0890596 186.67182,33.0481308 C186.995505,30.439715 187.19604,28.4411958 187.268048,27.0922983 C187.304084,26.4172583 187.307466,25.9105932 187.279236,25.5842717 C187.276341,25.5508025 187.273145,25.5198366 187.269753,25.4915366 Z"/>
    <circle cx="82.602" cy="79" r="2" fill="#142D3D"/>
    <circle cx="51.602" cy="98" r="2" fill="#142D3D"/>
    <polyline stroke="#142D3D" stroke-linecap="round" stroke-linejoin="round" points="49.655 66.335 33.644 147.179 140.71 154.188"/>
    <path fill="#142D3D" d="M33.6443086,147.179281 C57.4309208,117.342106 74.9525851,104.491413 86.2093015,108.627202 C97.466018,112.762991 115.633081,127.94987 140.710492,154.187838 L33.6443086,147.179281 Z"/>
    <path stroke="#142D3D" stroke-linecap="round" d="M47.4365407,148.673503 L47.4365407,150.819161" transform="rotate(3 47.437 149.746)"/>
    <path stroke="#142D3D" stroke-linecap="round" d="M63.4365407,149.673503 L63.4365407,151.819161" transform="rotate(3 63.437 150.746)"/>
    <path stroke="#142D3D" stroke-linecap="round" d="M79.4365407,150.673503 L79.4365407,152.819161" transform="rotate(3 79.437 151.746)"/>
    <path stroke="#142D3D" stroke-linecap="round" d="M95.4365407,151.673503 L95.4365407,153.819161" transform="rotate(3 95.437 152.746)"/>
    <path stroke="#142D3D" stroke-linecap="round" d="M111.436541,152.673503 L111.436541,154.819161" transform="rotate(3 111.437 153.746)"/>
    <path stroke="#142D3D" stroke-linecap="round" d="M127.436541,153.673503 L127.436541,155.819161" transform="rotate(3 127.437 154.746)"/>
    <path stroke="#142D3D" stroke-linecap="round" d="M45.1018402,72.5 L48.4511572,72.5" transform="rotate(9 46.776 72.5)"/>
    <path stroke="#142D3D" stroke-linecap="round" d="M41.1018402,88.5 L44.4511572,88.5" transform="rotate(9 42.776 88.5)"/>
    <path stroke="#142D3D" stroke-linecap="round" d="M38.1018402,104.5 L41.4511572,104.5" transform="rotate(9 39.776 104.5)"/>
    <path stroke="#142D3D" stroke-linecap="round" d="M35.1018402,120.5 L38.4511572,120.5" transform="rotate(9 36.776 120.5)"/>
    <path stroke="#142D3D" stroke-linecap="round" d="M32.1018402,136.5 L35.4511572,136.5" transform="rotate(9 33.776 136.5)"/>
    <path stroke="#142D3D" stroke-linecap="round" d="M42.6018402,110.279253 C50.5775598,99.0323902 56.4407241,91.7495924 60.191333,88.4308596 C69.9727331,79.775771 79.0307913,78.0725133 85.7453188,79.4033999 C92.4751448,80.7373187 104.063513,85.0158664 115.796015,97.9835555 C120.266753,102.924969 127.004333,113.194929 136.008754,128.793438"/>
    <circle cx="64.602" cy="85" r="2" fill="#142D3D"/>
    <circle cx="100.602" cy="85" r="2" fill="#142D3D"/>
    <circle cx="115.602" cy="98" r="2" fill="#142D3D"/>
    <circle cx="129.602" cy="118" r="2" fill="#142D3D"/>
  </g>
</svg>
