<svg xmlns="http://www.w3.org/2000/svg" width="397" height="470" viewBox="0 0 397 470">
  <g fill="none" fill-rule="evenodd">
    <path stroke="#979797"/>
    <polygon stroke="#142D3D" stroke-linejoin="bevel" points="61.91 249 14.278 195.175 188.985 141.696 237.072 195.345"/>
    <polygon stroke="#142D3D" points="237.072 195.345 237.072 320.137 62.41 361.326 62.41 248.493"/>
    <polygon stroke="#142D3D" points="237.072 195.345 237.072 312.701 355.072 421.345 355.072 307.348"/>
    <polygon stroke="#142D3D" stroke-linejoin="bevel" points="237.072 195.345 263.253 145.191 384.072 262.956 355.149 307.191"/>
    <g stroke="#142D3D" transform="rotate(14 -782.107 1304.184)">
      <path fill="#FFF" stroke-linejoin="bevel" d="M0.0867896851,47.7674165 C5.16552051,50.2652051 11.8321872,51.5140994 20.0867897,51.5140994 C28.3413922,51.5140994 35.0080589,50.2652051 40.0867897,47.7674165 L40.0867897,37.5140994 L0.0867896851,37.5140994 L0.0867896851,47.7674165 Z"/>
      <path fill="#142D3D" stroke-linejoin="bevel" d="M0.0920059729,39.5212069 C5.17073679,42.0189955 11.8374035,43.2678898 20.092006,43.2678898 C28.3466085,43.2678898 35.0132752,42.0189955 40.092006,39.5212069 L40.092006,29.2678898 L0.0920059729,29.2678898 L0.0920059729,39.5212069 Z"/>
      <path fill="#FFF" stroke-linejoin="bevel" d="M0.0490842357,31.0809266 C5.12781506,33.5787152 11.7944817,34.8276095 20.0490842,34.8276095 C28.3036867,34.8276095 34.9703534,33.5787152 40.0490842,31.0809266 L40.0490842,20.8276095 L0.0490842357,20.8276095 L0.0490842357,31.0809266 Z"/>
      <path fill="#142D3D" stroke-linejoin="bevel" d="M0.102438548,23.0287877 C5.18116937,25.5265763 11.847836,26.7754706 20.1024385,26.7754706 C28.3570411,26.7754706 35.0237077,25.5265763 40.1024385,23.0287877 L40.1024385,12.7754706 L0.102438548,12.7754706 L0.102438548,23.0287877 Z"/>
      <path fill="#FFF" stroke-linejoin="bevel" d="M0.107654836,14.7825781 C5.18638566,17.2803667 11.8530523,18.529261 20.1076548,18.529261 C28.3622573,18.529261 35.028924,17.2803667 40.1076548,14.7825781 L40.1076548,4.52926101 L0.107654836,4.52926101 L0.107654836,14.7825781 Z"/>
      <ellipse cx="20.476" cy="4.738" fill="#142D3D" rx="20" ry="4.5"/>
    </g>
    <g stroke="#142D3D" transform="translate(118.217 114.607)">
      <path fill="#FFF" stroke-linejoin="bevel" d="M1.01880741,41.6634637 C5.3357286,43.8044253 11.0023953,44.8749062 18.0188074,44.8749062 C25.0352195,44.8749062 30.7018862,43.8044253 35.0188074,41.6634637 L35.0188074,32.8749062 L1.01880741,32.8749062 L1.01880741,41.6634637 Z"/>
      <path fill="#142D3D" stroke-linejoin="bevel" d="M1.02402369,33.4172541 C5.34094489,35.5582157 11.0076116,36.6286966 18.0240237,36.6286966 C25.0404358,36.6286966 30.7071025,35.5582157 35.0240237,33.4172541 L35.0240237,24.6286966 L1.02402369,24.6286966 L1.02402369,33.4172541 Z"/>
      <path fill="#FFF" stroke-linejoin="bevel" d="M1.01880741,26.6634637 C5.3357286,28.8044253 11.0023953,29.8749062 18.0188074,29.8749062 C25.0352195,29.8749062 30.7018862,28.8044253 35.0188074,26.6634637 L35.0188074,17.8749062 L1.01880741,17.8749062 L1.01880741,26.6634637 Z"/>
      <path fill="#142D3D" stroke-linejoin="bevel" d="M1.02402369,21.4172541 C5.34094489,23.5582157 11.0076116,24.6286966 18.0240237,24.6286966 C25.0404358,24.6286966 30.7071025,23.5582157 35.0240237,21.4172541 L35.0240237,12.6286966 L1.02402369,12.6286966 L1.02402369,21.4172541 Z"/>
      <path fill="#FFF" stroke-linejoin="bevel" d="M1.03706441,12.8017301 C5.35398561,14.9426917 11.0206523,16.0131726 18.0370644,16.0131726 C25.0534766,16.0131726 30.7201432,14.9426917 35.0370644,12.8017301 L35.0370644,4.01317257 L1.03706441,4.01317257 L1.03706441,12.8017301 Z"/>
      <ellipse cx="17.783" cy="4.393" fill="#142D3D" rx="17" ry="4"/>
    </g>
    <path stroke="#979797"/>
    <g transform="translate(93.274 226)">
      <circle cx="9.5" cy="9.5" r="9.5" fill="#142D3D" stroke="#142D3D"/>
      <circle cx="15" cy="7" r="1" fill="#FFF"/>
      <path stroke="#FFF" stroke-linecap="round" d="M8.4638316,16.628182 C10.3975268,16.6443927 11.9808773,16.0476385 13.2138833,14.8379194 C14.4468892,13.6282002 15.196872,12.3113657 15.4638316,10.887416"/>
    </g>
    <g transform="translate(170.274 322)">
      <circle cx="9.5" cy="9.5" r="9.5" fill="#142D3D" stroke="#142D3D"/>
      <circle cx="15" cy="7" r="1" fill="#FFF"/>
      <path stroke="#FFF" stroke-linecap="round" d="M8.4638316,16.628182 C10.3975268,16.6443927 11.9808773,16.0476385 13.2138833,14.8379194 C14.4468892,13.6282002 15.196872,12.3113657 15.4638316,10.887416"/>
    </g>
    <g transform="translate(162.274 244)">
      <circle cx="9.5" cy="9.5" r="9.5" fill="#142D3D" stroke="#142D3D"/>
      <circle cx="15" cy="7" r="1" fill="#FFF"/>
      <path stroke="#FFF" stroke-linecap="round" d="M8.4638316,16.628182 C10.3975268,16.6443927 11.9808773,16.0476385 13.2138833,14.8379194 C14.4468892,13.6282002 15.196872,12.3113657 15.4638316,10.887416"/>
    </g>
    <g transform="translate(125.274 245)">
      <circle cx="9.5" cy="9.5" r="9.5" fill="#142D3D" stroke="#142D3D"/>
      <circle cx="15" cy="7" r="1" fill="#FFF"/>
      <path stroke="#FFF" stroke-linecap="round" d="M8.4638316,16.628182 C10.3975268,16.6443927 11.9808773,16.0476385 13.2138833,14.8379194 C14.4468892,13.6282002 15.196872,12.3113657 15.4638316,10.887416"/>
    </g>
    <g transform="translate(99.274 263)">
      <circle cx="9.5" cy="9.5" r="9.5" fill="#142D3D" stroke="#142D3D"/>
      <circle cx="15" cy="7" r="1" fill="#FFF"/>
      <path stroke="#FFF" stroke-linecap="round" d="M8.4638316,16.628182 C10.3975268,16.6443927 11.9808773,16.0476385 13.2138833,14.8379194 C14.4468892,13.6282002 15.196872,12.3113657 15.4638316,10.887416"/>
    </g>
    <g transform="translate(296.274 311)">
      <circle cx="9.5" cy="9.5" r="9.5" fill="#142D3D" stroke="#142D3D"/>
      <circle cx="15" cy="7" r="1" fill="#FFF"/>
      <path stroke="#FFF" stroke-linecap="round" d="M8.4638316,16.628182 C10.3975268,16.6443927 11.9808773,16.0476385 13.2138833,14.8379194 C14.4468892,13.6282002 15.196872,12.3113657 15.4638316,10.887416"/>
    </g>
    <g transform="translate(279.274 294)">
      <circle cx="9.5" cy="9.5" r="9.5" fill="#142D3D" stroke="#142D3D"/>
      <circle cx="15" cy="7" r="1" fill="#FFF"/>
      <path stroke="#FFF" stroke-linecap="round" d="M8.4638316,16.628182 C10.3975268,16.6443927 11.9808773,16.0476385 13.2138833,14.8379194 C14.4468892,13.6282002 15.196872,12.3113657 15.4638316,10.887416"/>
    </g>
    <g transform="translate(241.274 221)">
      <circle cx="9.5" cy="9.5" r="9.5" fill="#142D3D" stroke="#142D3D"/>
      <circle cx="15" cy="7" r="1" fill="#FFF"/>
      <path stroke="#FFF" stroke-linecap="round" d="M8.4638316,16.628182 C10.3975268,16.6443927 11.9808773,16.0476385 13.2138833,14.8379194 C14.4468892,13.6282002 15.196872,12.3113657 15.4638316,10.887416"/>
    </g>
    <g transform="translate(322.274 298)">
      <circle cx="9.5" cy="9.5" r="9.5" fill="#142D3D" stroke="#142D3D"/>
      <circle cx="15" cy="7" r="1" fill="#FFF"/>
      <path stroke="#FFF" stroke-linecap="round" d="M8.4638316,16.628182 C10.3975268,16.6443927 11.9808773,16.0476385 13.2138833,14.8379194 C14.4468892,13.6282002 15.196872,12.3113657 15.4638316,10.887416"/>
    </g>
    <g transform="translate(218.274 132)">
      <circle cx="9.5" cy="9.5" r="9.5" fill="#142D3D" stroke="#142D3D"/>
      <circle cx="15" cy="7" r="1" fill="#FFF"/>
      <path stroke="#FFF" stroke-linecap="round" d="M8.4638316,16.628182 C10.3975268,16.6443927 11.9808773,16.0476385 13.2138833,14.8379194 C14.4468892,13.6282002 15.196872,12.3113657 15.4638316,10.887416"/>
    </g>
    <g transform="translate(156.274 340)">
      <circle cx="9.5" cy="9.5" r="9.5" fill="#142D3D" stroke="#142D3D"/>
      <circle cx="15" cy="7" r="1" fill="#FFF"/>
      <path stroke="#FFF" stroke-linecap="round" d="M8.4638316,16.628182 C10.3975268,16.6443927 11.9808773,16.0476385 13.2138833,14.8379194 C14.4468892,13.6282002 15.196872,12.3113657 15.4638316,10.887416"/>
    </g>
    <g transform="translate(182.274 87)">
      <circle cx="9.5" cy="9.5" r="9.5" fill="#142D3D" stroke="#142D3D"/>
      <circle cx="15" cy="7" r="1" fill="#FFF"/>
      <path stroke="#FFF" stroke-linecap="round" d="M8.4638316,16.628182 C10.3975268,16.6443927 11.9808773,16.0476385 13.2138833,14.8379194 C14.4468892,13.6282002 15.196872,12.3113657 15.4638316,10.887416"/>
    </g>
    <g transform="translate(216.274 32)">
      <circle cx="9.5" cy="9.5" r="9.5" fill="#142D3D" stroke="#142D3D"/>
      <circle cx="15" cy="7" r="1" fill="#FFF"/>
      <path stroke="#FFF" stroke-linecap="round" d="M8.4638316,16.628182 C10.3975268,16.6443927 11.9808773,16.0476385 13.2138833,14.8379194 C14.4468892,13.6282002 15.196872,12.3113657 15.4638316,10.887416"/>
    </g>
    <g transform="rotate(-30 586.83 -73.032)">
      <rect width="38" height="38" x=".5" y="2.5" fill="#142D3D" stroke="#142D3D" rx="4"/>
      <path stroke="#142D3D" stroke-linecap="round" d="M20.5.5L20.5 4.39157758M23.5.5L23.5 4.39157758M26.5.5L26.5 4.39157758M29.5.5L29.5 4.39157758M32.5.5L32.5 4.39157758M35.5.5L35.5 4.39157758M4.5 38.5L4.5 42.3915776M7.5 38.5L7.5 42.3915776M10.5 38.5L10.5 42.3915776M13.5 38.5L13.5 42.3915776M16.5 38.5L16.5 42.3915776M19.5 38.5L19.5 42.3915776"/>
      <g transform="translate(3 5)">
        <rect width="18" height="18" x="1.5" y="1.5" fill="#FFF" stroke="#142D3D" rx="4"/>
        <rect width="20" height="20" x=".5" y=".5" stroke="#FFF" rx="4"/>
        <path stroke="#142D3D" stroke-linecap="round" d="M5.5 3.50885579C6.8956395 4.65721767 7.59345924 6.09917927 7.59345924 7.8347406 7.59345924 10.5087833 4.44548581 11.700806 4.44548581 14.2576841 4.44548581 15.4241613 5.14067496 16.5078851 6.53105325 17.5088558M9.5 3.50885579C10.8956395 4.65721767 11.5934592 6.09917927 11.5934592 7.8347406 11.5934592 10.5087833 8.44548581 11.700806 8.44548581 14.2576841 8.44548581 15.4241613 9.14067496 16.5078851 10.5310533 17.5088558M13.5 3.50885579C14.8956395 4.65721767 15.5934592 6.09917927 15.5934592 7.8347406 15.5934592 10.5087833 12.4454858 11.700806 12.4454858 14.2576841 12.4454858 15.4241613 13.140675 16.5078851 14.5310533 17.5088558"/>
      </g>
      <circle cx="33.5" cy="9.5" r="1.5" stroke="#FFF"/>
      <circle cx="33.5" cy="15.5" r="1.5" stroke="#FFF"/>
      <circle cx="33.5" cy="21.5" r="1.5" stroke="#FFF"/>
      <path stroke="#FFF" stroke-linecap="round" d="M4 29.5L23.5 29.5M4 31.5L23.5 31.5M4 33.5L23.5 33.5M4 35.5L23.5 35.5M4 37.5L23.5 37.5"/>
    </g>
    <g transform="rotate(-30 483.11 -230.824)">
      <rect width="38" height="38" x=".5" y="2.5" fill="#142D3D" stroke="#142D3D" rx="4"/>
      <path stroke="#142D3D" stroke-linecap="round" d="M20.5.5L20.5 4.39157758M23.5.5L23.5 4.39157758M26.5.5L26.5 4.39157758M29.5.5L29.5 4.39157758M32.5.5L32.5 4.39157758M35.5.5L35.5 4.39157758M4.5 38.5L4.5 42.3915776M7.5 38.5L7.5 42.3915776M10.5 38.5L10.5 42.3915776M13.5 38.5L13.5 42.3915776M16.5 38.5L16.5 42.3915776M19.5 38.5L19.5 42.3915776"/>
      <g transform="translate(3 5)">
        <rect width="18" height="18" x="1.5" y="1.5" fill="#FFF" stroke="#142D3D" rx="4"/>
        <rect width="20" height="20" x=".5" y=".5" stroke="#FFF" rx="4"/>
        <path stroke="#142D3D" stroke-linecap="round" d="M5.5 3.50885579C6.8956395 4.65721767 7.59345924 6.09917927 7.59345924 7.8347406 7.59345924 10.5087833 4.44548581 11.700806 4.44548581 14.2576841 4.44548581 15.4241613 5.14067496 16.5078851 6.53105325 17.5088558M9.5 3.50885579C10.8956395 4.65721767 11.5934592 6.09917927 11.5934592 7.8347406 11.5934592 10.5087833 8.44548581 11.700806 8.44548581 14.2576841 8.44548581 15.4241613 9.14067496 16.5078851 10.5310533 17.5088558M13.5 3.50885579C14.8956395 4.65721767 15.5934592 6.09917927 15.5934592 7.8347406 15.5934592 10.5087833 12.4454858 11.700806 12.4454858 14.2576841 12.4454858 15.4241613 13.140675 16.5078851 14.5310533 17.5088558"/>
      </g>
      <circle cx="33.5" cy="9.5" r="1.5" stroke="#FFF"/>
      <circle cx="33.5" cy="15.5" r="1.5" stroke="#FFF"/>
      <circle cx="33.5" cy="21.5" r="1.5" stroke="#FFF"/>
      <path stroke="#FFF" stroke-linecap="round" d="M4 29.5L23.5 29.5M4 31.5L23.5 31.5M4 33.5L23.5 33.5M4 35.5L23.5 35.5M4 37.5L23.5 37.5"/>
    </g>
    <g transform="rotate(120 22.077 148.988)">
      <rect width="38" height="38" x=".5" y="2.5" fill="#142D3D" stroke="#142D3D" rx="4"/>
      <path stroke="#142D3D" stroke-linecap="round" d="M20.5.5L20.5 4.39157758M23.5.5L23.5 4.39157758M26.5.5L26.5 4.39157758M29.5.5L29.5 4.39157758M32.5.5L32.5 4.39157758M35.5.5L35.5 4.39157758M4.5 38.5L4.5 42.3915776M7.5 38.5L7.5 42.3915776M10.5 38.5L10.5 42.3915776M13.5 38.5L13.5 42.3915776M16.5 38.5L16.5 42.3915776M19.5 38.5L19.5 42.3915776"/>
      <g transform="translate(3 5)">
        <rect width="18" height="18" x="1.5" y="1.5" fill="#FFF" stroke="#142D3D" rx="4"/>
        <rect width="20" height="20" x=".5" y=".5" stroke="#FFF" rx="4"/>
        <path stroke="#142D3D" stroke-linecap="round" d="M5.5 3.50885579C6.8956395 4.65721767 7.59345924 6.09917927 7.59345924 7.8347406 7.59345924 10.5087833 4.44548581 11.700806 4.44548581 14.2576841 4.44548581 15.4241613 5.14067496 16.5078851 6.53105325 17.5088558M9.5 3.50885579C10.8956395 4.65721767 11.5934592 6.09917927 11.5934592 7.8347406 11.5934592 10.5087833 8.44548581 11.700806 8.44548581 14.2576841 8.44548581 15.4241613 9.14067496 16.5078851 10.5310533 17.5088558M13.5 3.50885579C14.8956395 4.65721767 15.5934592 6.09917927 15.5934592 7.8347406 15.5934592 10.5087833 12.4454858 11.700806 12.4454858 14.2576841 12.4454858 15.4241613 13.140675 16.5078851 14.5310533 17.5088558"/>
      </g>
      <circle cx="33.5" cy="9.5" r="1.5" stroke="#FFF"/>
      <circle cx="33.5" cy="15.5" r="1.5" stroke="#FFF"/>
      <circle cx="33.5" cy="21.5" r="1.5" stroke="#FFF"/>
      <path stroke="#FFF" stroke-linecap="round" d="M4 29.5L23.5 29.5M4 31.5L23.5 31.5M4 33.5L23.5 33.5M4 35.5L23.5 35.5M4 37.5L23.5 37.5"/>
    </g>
    <polygon fill="#FFF" stroke="#142D3D" stroke-linejoin="bevel" points="62.125 248.993 161 354.493 161.41 468.993 61.41 361.364"/>
    <polygon stroke="#142D3D" points="148.676 341 161.41 354.493 210.425 343.139 205.229 328"/>
    <polygon fill="#FFF" stroke="#142D3D" stroke-linejoin="bevel" points="161.274 354.063 355.274 307.348 355.274 420.665 161.274 469.066"/>
    <polygon fill="#FFF" stroke="#142D3D" stroke-linejoin="bevel" points="61.41 248.493 0 248.493 96.494 344.797 161 354.493"/>
    <g stroke="#142D3D" stroke-linecap="round" transform="translate(265.274 249)">
      <path d="M0.5,8 L14.0825099,8"/>
      <path d="M0.5,8 L14.0825099,8" transform="rotate(30 7.5 8)"/>
      <path d="M0.5,8 L14.0825099,8" transform="rotate(60 7.5 8)"/>
      <path d="M0.5,8 L14.0825099,8" transform="rotate(90 7.5 8)"/>
      <path d="M0.5,8 L14.0825099,8" transform="rotate(120 7.5 8)"/>
      <path d="M0.5,8 L14.0825099,8" transform="rotate(150 7.5 8)"/>
    </g>
    <g stroke="#142D3D" stroke-linecap="round" transform="translate(78.274 187)">
      <path d="M0.5,8 L14.0825099,8"/>
      <path d="M0.5,8 L14.0825099,8" transform="rotate(30 7.5 8)"/>
      <path d="M0.5,8 L14.0825099,8" transform="rotate(60 7.5 8)"/>
      <path d="M0.5,8 L14.0825099,8" transform="rotate(90 7.5 8)"/>
      <path d="M0.5,8 L14.0825099,8" transform="rotate(120 7.5 8)"/>
      <path d="M0.5,8 L14.0825099,8" transform="rotate(150 7.5 8)"/>
    </g>
    <g stroke="#142D3D" stroke-linecap="round" transform="translate(194.274 114)">
      <path d="M0.5,8 L14.0825099,8"/>
      <path d="M0.5,8 L14.0825099,8" transform="rotate(30 7.5 8)"/>
      <path d="M0.5,8 L14.0825099,8" transform="rotate(60 7.5 8)"/>
      <path d="M0.5,8 L14.0825099,8" transform="rotate(90 7.5 8)"/>
      <path d="M0.5,8 L14.0825099,8" transform="rotate(120 7.5 8)"/>
      <path d="M0.5,8 L14.0825099,8" transform="rotate(150 7.5 8)"/>
    </g>
    <g transform="translate(173.274 164)">
      <circle cx="9.5" cy="9.5" r="9.5" fill="#142D3D" stroke="#142D3D"/>
      <circle cx="15" cy="7" r="1" fill="#FFF"/>
      <path stroke="#FFF" stroke-linecap="round" d="M8.4638316,16.628182 C10.3975268,16.6443927 11.9808773,16.0476385 13.2138833,14.8379194 C14.4468892,13.6282002 15.196872,12.3113657 15.4638316,10.887416"/>
    </g>
    <g stroke="#142D3D" stroke-linecap="round" transform="translate(149.274 167)">
      <path d="M0.5,8 L14.0825099,8"/>
      <path d="M0.5,8 L14.0825099,8" transform="rotate(30 7.5 8)"/>
      <path d="M0.5,8 L14.0825099,8" transform="rotate(60 7.5 8)"/>
      <path d="M0.5,8 L14.0825099,8" transform="rotate(90 7.5 8)"/>
      <path d="M0.5,8 L14.0825099,8" transform="rotate(120 7.5 8)"/>
      <path d="M0.5,8 L14.0825099,8" transform="rotate(150 7.5 8)"/>
    </g>
    <g stroke="#142D3D" stroke-linecap="round" transform="translate(208.274 59)">
      <path d="M0.5,8 L14.0825099,8"/>
      <path d="M0.5,8 L14.0825099,8" transform="rotate(30 7.5 8)"/>
      <path d="M0.5,8 L14.0825099,8" transform="rotate(60 7.5 8)"/>
      <path d="M0.5,8 L14.0825099,8" transform="rotate(90 7.5 8)"/>
      <path d="M0.5,8 L14.0825099,8" transform="rotate(120 7.5 8)"/>
      <path d="M0.5,8 L14.0825099,8" transform="rotate(150 7.5 8)"/>
    </g>
    <g stroke="#142D3D" stroke-linecap="round" transform="translate(189.274)">
      <path d="M0.5,8 L14.0825099,8"/>
      <path d="M0.5,8 L14.0825099,8" transform="rotate(30 7.5 8)"/>
      <path d="M0.5,8 L14.0825099,8" transform="rotate(60 7.5 8)"/>
      <path d="M0.5,8 L14.0825099,8" transform="rotate(90 7.5 8)"/>
      <path d="M0.5,8 L14.0825099,8" transform="rotate(120 7.5 8)"/>
      <path d="M0.5,8 L14.0825099,8" transform="rotate(150 7.5 8)"/>
    </g>
    <g stroke="#142D3D" stroke-linecap="round" transform="translate(164.274 220)">
      <path d="M0.5,8 L14.0825099,8"/>
      <path d="M0.5,8 L14.0825099,8" transform="rotate(30 7.5 8)"/>
      <path d="M0.5,8 L14.0825099,8" transform="rotate(60 7.5 8)"/>
      <path d="M0.5,8 L14.0825099,8" transform="rotate(90 7.5 8)"/>
      <path d="M0.5,8 L14.0825099,8" transform="rotate(120 7.5 8)"/>
      <path d="M0.5,8 L14.0825099,8" transform="rotate(150 7.5 8)"/>
    </g>
    <g stroke="#142D3D" stroke-linecap="round" transform="translate(192.274 332)">
      <path d="M0.5,8 L14.0825099,8"/>
      <path d="M0.5,8 L14.0825099,8" transform="rotate(30 7.5 8)"/>
      <path d="M0.5,8 L14.0825099,8" transform="rotate(60 7.5 8)"/>
      <path d="M0.5,8 L14.0825099,8" transform="rotate(90 7.5 8)"/>
      <path d="M0.5,8 L14.0825099,8" transform="rotate(120 7.5 8)"/>
      <path d="M0.5,8 L14.0825099,8" transform="rotate(150 7.5 8)"/>
    </g>
    <g stroke="#142D3D" stroke-linecap="round" transform="translate(155.274 309)">
      <path d="M0.5,8 L14.0825099,8"/>
      <path d="M0.5,8 L14.0825099,8" transform="rotate(30 7.5 8)"/>
      <path d="M0.5,8 L14.0825099,8" transform="rotate(60 7.5 8)"/>
      <path d="M0.5,8 L14.0825099,8" transform="rotate(90 7.5 8)"/>
      <path d="M0.5,8 L14.0825099,8" transform="rotate(120 7.5 8)"/>
      <path d="M0.5,8 L14.0825099,8" transform="rotate(150 7.5 8)"/>
    </g>
    <g stroke="#142D3D" stroke-linecap="round" transform="translate(179.274 276)">
      <path d="M0.5,8 L14.0825099,8"/>
      <path d="M0.5,8 L14.0825099,8" transform="rotate(30 7.5 8)"/>
      <path d="M0.5,8 L14.0825099,8" transform="rotate(60 7.5 8)"/>
      <path d="M0.5,8 L14.0825099,8" transform="rotate(90 7.5 8)"/>
      <path d="M0.5,8 L14.0825099,8" transform="rotate(120 7.5 8)"/>
      <path d="M0.5,8 L14.0825099,8" transform="rotate(150 7.5 8)"/>
    </g>
    <g stroke="#142D3D" transform="rotate(-18 907.071 -443.455)">
      <path fill="#FFF" stroke-linejoin="bevel" d="M1.77276119,92.4504969 C10.5335719,96.9108337 22.0335719,99.1410021 36.2727612,99.1410021 C50.5119505,99.1410021 62.0119505,96.9108337 70.7727612,92.4504969 L70.7727612,74.1410021 L1.77276119,74.1410021 L1.77276119,92.4504969 Z"/>
      <path fill="#142D3D" stroke-linejoin="bevel" d="M0.883640185,75.1980072 C9.77141912,79.658344 21.4380858,81.8885124 35.8836402,81.8885124 C50.3291946,81.8885124 61.9958612,79.658344 70.8836402,75.1980072 L70.8836402,56.8885124 L0.883640185,56.8885124 L0.883640185,75.1980072 Z"/>
      <path fill="#FFF" stroke-linejoin="bevel" d="M0.763612519,59.3870745 C9.65139146,63.8474113 21.3180581,66.0775797 35.7636125,66.0775797 C50.2091669,66.0775797 61.8758336,63.8474113 70.7636125,59.3870745 L70.7636125,41.0775797 L0.763612519,41.0775797 L0.763612519,59.3870745 Z"/>
      <path fill="#142D3D" stroke-linejoin="bevel" d="M0.770638674,43.7576252 C9.65841761,48.217962 21.3250843,50.4481304 35.7706387,50.4481304 C50.2161931,50.4481304 61.8828597,48.217962 70.7706387,43.7576252 L70.7706387,25.4481304 L0.770638674,25.4481304 L0.770638674,43.7576252 Z"/>
      <path fill="#FFF" stroke-linejoin="bevel" d="M0.959628002,26.995636 C9.84740694,31.4559728 21.5140736,33.6861412 35.959628,33.6861412 C50.4051824,33.6861412 62.0718491,31.4559728 70.959628,26.995636 L70.959628,8.68614119 L0.959628002,8.68614119 L0.959628002,26.995636 Z"/>
      <ellipse cx="35.864" cy="8.537" fill="#142D3D" rx="35" ry="8.5"/>
    </g>
    <polygon fill="#FFF" stroke="#142D3D" stroke-linejoin="bevel" points="161.41 354.493 201.274 397.302 395.519 350.528 355.274 307.348"/>
  </g>
</svg>
