<svg xmlns="http://www.w3.org/2000/svg" width="143" height="92" viewBox="0 0 143 92">
  <g fill="none" fill-rule="evenodd" transform="translate(0 1)">
    <path stroke="#142D3D" stroke-linecap="round" d="M9.06382979,49.8653755 C30.9601695,16.6217918 52.9981575,-4.26325641e-14 75.1777938,-4.26325641e-14 C97.3574302,-4.26325641e-14 119.631499,16.6217918 142,49.8653755"/>
    <path stroke="#142D3D" stroke-linecap="round" d="M9.06382979,49.8653755 C30.9601695,25.8653755 52.9981575,13.8653755 75.1777938,13.8653755 C97.3574302,13.8653755 119.631499,25.8653755 142,49.8653755"/>
    <path stroke="#142D3D" stroke-linecap="round" d="M9.06382979,49.8653755 C30.6945141,23.1952574 52.5996745,9.86019835 74.7793108,9.86019835 C96.9589471,9.86019835 119.365844,23.1952574 142,49.8653755"/>
    <path stroke="#142D3D" stroke-linecap="round" d="M9.06382979,49.8653755 C31.1962502,20.7234869 53.3522786,6.15254264 75.5319149,6.15254264 C97.7115512,6.15254264 119.86758,20.7234869 142,49.8653755"/>
    <path stroke="#142D3D" d="M9.06382979,89.8653755 C30.9601695,63.1987088 52.9981575,49.8653755 75.1777938,49.8653755 C97.3574302,49.8653755 119.631499,63.1987088 142,89.8653755" transform="matrix(1 0 0 -1 0 139.73)"/>
    <ellipse cx="84.092" cy="56.686" stroke="#142D3D" rx="31.723" ry="31.5"/>
    <ellipse cx="89.631" cy="64.186" fill="#142D3D" stroke="#142D3D" rx="22.156" ry="22"/>
    <path stroke="#142D3D" stroke-linecap="square" d="M16.4944315 27.5326409L21.0563872 32.0945967M4.23386736 32.3905453L13.7086943 41.798648"/>
    <circle cx="14.5" cy="25.5" r="3.5" fill="#142D3D"/>
    <path stroke="#142D3D" stroke-linecap="square" d="M27.0679822,21.0494541 L29.1131248,23.0945967"/>
    <ellipse cx="25.5" cy="18.475" fill="#142D3D" rx="3.5" ry="3.475"/>
    <circle cx="3.5" cy="32.686" r="3.5" fill="#142D3D"/>
  </g>
</svg>
